# xmcd
#
# Track frame offsets:
#	150
#	21171
#	33211
#	44971
#	56898
#	69490
#	81615
#	94188
#	106376
#	118613
#	130561
#
# Disc length: 1879 seconds
#
# Revision: 1
# Processed by: cddbd v1.5.2PL0 Copyright (c) Steve Scherf et al.
# Submitted via: audiograbber 1.83.01
#
DISCID=9b07550b
DTITLE=Los Ases De Durango - Exitos De Oro
DYEAR=2000
DGENRE=Cumbia
TTITLE0=Los Males De Micaela (Remix)
TTITLE1=La Bonga
TTITLE2=La Ranita
TTITLE3=La Chunguera
TTITLE4=Los Males De Micaela
TTITLE5=Limonadas Verdes
TTITLE6=El Machorrito
TTITLE7=El Pirulino
TTITLE8=Saguita Al Bat
TTITLE9=La Tejanita
TTITLE10=Silvia
EXTD=
EXTT0=
EXTT1=
EXTT2=
EXTT3=
EXTT4=
EXTT5=
EXTT6=
EXTT7=
EXTT8=
EXTT9=
EXTT10=
PLAYORDER=
